# xmcd CD database file
#
# Track frame offsets:
#	150
#	18752
#	35819
#	54344
#	75459
#
# Disc length: 1191 seconds
#
# Revision: 0
# Processed by: cddbd v1.5.1PL0 Copyright (c) Steve Scherf et al.
# Submitted via: CDex 1.51
#
DISCID=2f04a505
DTITLE=Table for Two - Die Schmuse CD
DYEAR=1995
DGENRE=Jazz
TTITLE0=All for you
TTITLE1=Don´t say we´re wrong
TTITLE2=Deep in my heart
TTITLE3=Love song
TTITLE4=This babe loves me
EXTD=YEAR: 1995
EXTT0=
EXTT1=
EXTT2=
EXTT3=
EXTT4=
PLAYORDER=
